<?xml version="1.0" encoding="utf-8"?>
<!-- Generator: Adobe Illustrator 21.1.0, SVG Export Plug-In . SVG Version: 6.00 Build 0)  -->
<svg version="1.1"
	 id="svg8" inkscape:version="0.91 r13725" sodipodi:docname="CameraButtonStand.svg" xmlns:cc="http://creativecommons.org/ns#" xmlns:dc="http://purl.org/dc/elements/1.1/" xmlns:inkscape="http://www.inkscape.org/namespaces/inkscape" xmlns:rdf="http://www.w3.org/1999/02/22-rdf-syntax-ns#" xmlns:sodipodi="http://sodipodi.sourceforge.net/DTD/sodipodi-0.dtd" xmlns:svg="http://www.w3.org/2000/svg"
	 xmlns="http://www.w3.org/2000/svg" xmlns:xlink="http://www.w3.org/1999/xlink" x="0px" y="0px" viewBox="0 0 595.3 841.9"
	 style="enable-background:new 0 0 595.3 841.9;" xml:space="preserve">
<style type="text/css">
	.st0{fill:#FFFFFF;}
	.st1{fill:#233759;}
	.st2{fill:none;stroke:#000000;stroke-width:1.000000e-03;stroke-linecap:round;stroke-linejoin:round;}
	.st3{fill:none;stroke:#0000FF;stroke-width:1.000000e-03;}
	.st4{fill:none;stroke:#000000;stroke-width:1.000000e-03;stroke-miterlimit:10;}
	.st5{font-family:'Bauhaus93';}
	.st6{font-size:95.5765px;}
</style>
<g>
	<polygon class="st0" points="298.8,470.6 298.8,243.9 522.7,243.9 522.7,470.6 	"/>
	<polygon class="st1" points="392.4,336.9 371.1,470.6 371.6,470.6 394.5,335.1 	"/>
	<polygon class="st1" points="383.7,344.2 368.8,470.6 369.3,470.6 385.7,342.5 	"/>
	<polygon class="st1" points="375.7,351 366.5,470.6 367,470.6 377.5,349.4 	"/>
	<polygon class="st1" points="368.3,357.3 364.2,470.6 364.7,470.6 370,355.8 	"/>
	<polygon class="st1" points="362.4,462.1 362.4,453.2 362.4,450.5 362.5,441.6 362.5,438.8 362.5,429.9 362.6,427.2 362.6,418.2 
		362.7,415.6 362.9,361.8 361.3,363.1 361.6,415.9 361.6,418.7 361.7,427.5 361.7,430.2 361.7,439 361.7,441.7 361.8,450.6 
		361.8,453.2 361.8,462.1 361.8,464.9 361.9,470.6 362.3,470.6 362.4,464.9 	"/>
	<polygon class="st1" points="359.8,464.8 359.7,462.2 359.5,453.4 359.3,450.7 359,442.2 359,439.5 358.6,430.9 358.5,428.3 
		358.2,419.8 358.1,417.2 356.3,367.4 354.9,368.6 357.1,417.6 357.2,420.1 357.6,428.6 357.7,431.2 358.1,439.6 358.2,442.3 
		358.6,450.9 358.7,453.5 359.2,462.2 359.3,464.8 359.6,470.6 360,470.6 359.8,464.9 	"/>
	<polygon class="st1" points="357.1,462.2 356.4,453.7 356.3,451.1 355.6,442.8 355.4,440.1 354.7,431.9 354.6,429.4 353.9,421.3 
		353.7,418.8 350.1,372.6 348.8,373.7 352.8,419.2 353,421.6 353.7,429.7 353.9,432.2 354.6,440.3 354.8,442.9 355.5,451.2 
		355.7,453.7 356.5,462.2 356.7,464.8 357.2,470.6 357.7,470.6 357.2,464.8 	"/>
	<polygon class="st1" points="354.4,462.2 353.4,453.9 353.2,451.4 352.2,443.4 351.9,440.8 351,432.9 350.7,430.5 349.8,422.7 
		349.5,420.4 344.4,377.4 343.1,378.5 348.5,420.7 348.8,423.1 349.8,430.8 350.1,433.2 351.1,441 351.4,443.5 352.5,451.5 
		352.8,454 353.8,462.2 354.2,464.8 354.9,470.6 355.4,470.6 354.7,464.8 	"/>
	<polygon class="st1" points="347.7,463.7 348.5,463.6 347.3,458.3 346.5,458.5 	"/>
	<polygon class="st1" points="348.2,465.3 349.4,470.6 350.1,470.6 348.9,465.2 	"/>
	<polygon class="st1" points="329.6,390 330.2,392.4 330.2,392.4 331.4,391.8 331.8,393.6 330.7,394.1 330.6,394.1 332,399.8 
		333.1,399.4 333.5,401.1 332.4,401.5 333.8,407.2 334.9,406.8 335.3,408.6 334.3,408.9 335.7,414.6 336.6,414.4 337,416.2 
		336.1,416.5 337.5,422.2 338.4,422.1 338.8,423.9 338,424 339.4,429.9 340.2,429.8 340.6,431.6 339.8,431.7 341.3,437.6 342,437.6 
		342.4,439.4 341.7,439.4 343.2,445.4 343.8,445.4 344.2,447.2 343.7,447.2 344.4,450.3 345.4,450.1 331.2,388.7 331.1,388.7 
		329.6,390 	"/>
	<polygon class="st1" points="346.1,457 346.9,456.8 345.7,451.7 344.8,451.9 	"/>
	<polygon class="st1" points="348.9,465.2 348.5,463.6 347.7,463.7 298.8,470 298.8,470.6 302.3,470.6 348.2,465.3 	"/>
	<polygon class="st1" points="347.3,458.3 346.9,456.8 346.1,457 340.3,458 340.5,458.4 338.6,458.7 338.5,458.4 332.6,459.5 
		332.6,459.7 330.8,460 330.8,459.8 324.7,461 324.8,461.1 323,461.4 323,461.3 298.8,465.9 298.8,466.9 346.5,458.5 	"/>
	<polygon class="st1" points="336.2,452.7 336.2,452.7 336.1,452.4 336.1,452.4 330.5,453.9 330.9,455.2 329.3,455.6 328.8,454.3 
		328.8,454.3 323.2,455.7 323.6,457 329.3,455.6 330.9,455.2 331,455.2 336.6,453.8 336.2,452.7 	"/>
	<polygon class="st1" points="315.8,457.6 316.1,458.7 321.8,457.3 321.5,456.2 	"/>
	<polygon class="st1" points="300.8,461.3 300.9,462.3 306.8,460.9 306.6,459.8 	"/>
	<polygon class="st1" points="299.1,461.8 298.8,461.8 298.8,462.8 299.1,462.7 	"/>
	<polygon class="st1" points="308.3,459.5 308.5,460.5 314.3,459.1 314,458 	"/>
	<polygon class="st1" points="337.8,452 338.1,452.8 338.4,453.4 338.4,453.4 338.4,453.4 344.8,451.9 345.7,451.7 345.4,450.1 
		344.4,450.3 	"/>
	<polygon class="st1" points="320.3,411.3 320.3,411.3 318.2,406.5 318.2,406.5 317.2,406.9 319.2,411.7 319.2,411.7 320.3,411.3 	
		"/>
	<polygon class="st1" points="317.6,405.1 317.6,405.1 316,401.4 315.3,402.1 316.7,405.5 316.7,405.5 317.6,405.1 	"/>
	<polygon class="st1" points="309.7,388.7 310.5,390.4 311.5,392.9 312.2,392.5 311.1,390 310.4,388.2 309.9,386.9 309.2,387.3 	"/>
	<polygon class="st1" points="300.6,366.6 301.3,368.3 302.4,371.1 302.9,370.8 301.8,368.1 301,366.4 300.6,365.4 300.2,365.5 	"/>
	<polygon class="st1" points="312.2,394.7 312.2,394.7 312.2,394.8 312.8,396.2 313.5,397.9 314.2,399.5 315,399.1 314.2,397.2 
		313.5,395.5 312.9,394.2 312.9,394.2 312.9,394.2 	"/>
	<polygon class="st1" points="325.8,424.3 325.8,424.3 323.7,419.2 323.7,419.2 322.5,419.5 324.5,424.5 324.5,424.5 325.8,424.3 	
		"/>
	<polygon class="st1" points="306.7,381.3 306.7,381.3 307.4,383 308.5,385.6 309.1,385.2 308,382.6 307.3,380.9 306.8,379.7 
		306.1,380.1 	"/>
	<polygon class="st1" points="303.6,373.9 304.3,375.7 305.4,378.3 306,378 304.8,375.4 304.1,373.6 303.7,372.5 303.2,372.8 	"/>
	<polygon class="st1" points="328.8,431.1 328.8,431.1 326.5,425.9 326.5,425.9 325.2,426.1 327.3,431.3 327.3,431.3 328.8,431.1 	
		"/>
	<polygon class="st1" points="323,417.7 323,417.7 320.9,412.7 320.9,412.7 319.8,413.1 321.8,418 321.8,418 323,417.7 	"/>
	<polygon class="st1" points="334.9,445.3 334.9,445.3 332.5,439.7 332.5,439.7 330.8,439.8 333.1,445.3 333.1,445.3 334.9,445.3 	
		"/>
	<polygon class="st1" points="299.9,363.7 298.8,361.3 298.8,362.2 299.5,363.9 	"/>
	<polygon class="st1" points="331.8,438.2 331.8,438.1 329.4,432.7 329.4,432.7 328,432.9 330.2,438.2 330.2,438.2 331.8,438.2 	"/>
	<polygon class="st1" points="336.2,452.7 338.1,452.8 338.4,453.4 338.4,453.4 338.1,452.8 337.8,452 337.7,452 335.6,447 
		335.6,447 333.8,447 336.1,452.4 336.1,452.4 336.2,452.7 	"/>
	<polygon class="st1" points="338.6,458.7 340.5,458.4 340.3,458 338.5,458.4 	"/>
	<polygon class="st1" points="301.4,375.2 310.4,401.1 310.8,402.5 312.4,407.1 312.9,408.4 314.5,413.1 315,414.5 316.6,419.2 
		317.2,420.7 318.8,425.6 319.4,427 321,432 321.6,433.5 323.3,438.6 323.9,440.1 325.7,445.3 326.2,446.9 328.1,452.1 328.6,453.7 
		328.8,454.3 328.8,454.3 329.3,455.6 330.9,455.2 330.5,453.9 330.5,453.9 329.9,452.3 328,446.9 327.4,445.3 325.5,440 
		324.9,438.5 323.1,433.4 322.5,431.8 320.7,426.8 320.1,425.3 318.3,420.5 317.8,419 316.1,414.2 315.6,412.7 313.9,408.1 
		313.4,406.7 311.7,402.1 311.2,400.7 302.5,376.7 301.8,374.9 299.7,369.1 299.1,367.4 298.8,366.6 298.8,368 299.3,369.3 	"/>
	<polygon class="st1" points="330.8,460 332.6,459.7 332.6,459.5 330.8,459.8 	"/>
	<polygon class="st1" points="321.8,457.3 323.6,457 323.2,455.7 298.8,374.1 298.8,376.1 321.5,456.2 	"/>
	<polygon class="st1" points="323,461.4 324.8,461.1 324.7,461 323,461.3 	"/>
	<polygon class="st1" points="314.3,459.1 316.1,458.7 315.8,457.6 298.8,385.2 298.8,388.9 314,458 	"/>
	<polygon class="st1" points="306.8,460.9 308.5,460.5 308.3,459.5 299.4,407.6 299.1,405.8 298.8,404.4 298.8,405.7 299,405.8 
		299.4,407.5 298.8,407.5 298.8,410.7 306.6,459.8 	"/>
	<polygon class="st1" points="299.1,462.7 300.9,462.3 300.8,461.3 298.8,443.8 298.8,459.5 299.1,461.8 	"/>
	<polygon class="st1" points="299,405.8 298.8,405.7 298.8,407.5 299.4,407.5 	"/>
	<polygon class="st1" points="330.6,394.1 330.7,394.1 331.8,393.6 331.4,391.8 330.2,392.4 330.2,392.4 330,392.5 323,395.6 
		323,395.6 318.8,399.1 330.4,394.2 	"/>
	<polygon class="st1" points="314.6,400.4 314.7,400.7 314.6,400.4 315.3,399.8 317.3,398.1 315,399.1 314.2,399.5 	"/>
	<polygon class="st1" points="318.2,406.5 332.2,401.5 332.4,401.5 333.5,401.1 333.1,399.4 332,399.8 331.8,399.8 317.6,405.1 
		317.6,405.1 316.7,405.5 316.6,405.5 317.2,406.9 317.2,406.9 318.2,406.5 	"/>
	<polygon class="st1" points="320.9,412.7 334.1,408.9 334.3,408.9 335.3,408.6 334.9,406.8 333.8,407.2 333.6,407.2 320.3,411.3 
		320.3,411.3 319.2,411.7 319.2,411.7 319.8,413.1 319.8,413.1 320.9,412.7 	"/>
	<polygon class="st1" points="323.7,419.2 335.9,416.5 336.1,416.5 337,416.2 336.6,414.4 335.7,414.6 335.5,414.7 323,417.7 
		323,417.7 321.8,418 321.8,418 322.4,419.5 322.5,419.5 323.7,419.2 	"/>
	<polygon class="st1" points="326.5,425.9 337.7,424 338,424 338.8,423.9 338.4,422.1 337.5,422.2 337.4,422.3 325.8,424.3 
		325.8,424.3 324.5,424.5 324.5,424.5 325.1,426.1 325.2,426.1 326.5,425.9 	"/>
	<polygon class="st1" points="329.4,432.7 339.7,431.7 339.8,431.7 340.6,431.6 340.2,429.8 339.4,429.9 339.2,429.9 328.8,431.1 
		328.8,431.1 327.3,431.3 327.3,431.3 327.9,432.9 328,432.9 329.4,432.7 	"/>
	<polygon class="st1" points="332.5,439.7 341.6,439.4 341.7,439.4 342.4,439.4 342,437.6 341.3,437.6 341.1,437.6 331.8,438.2 
		331.8,438.2 330.2,438.2 330.2,438.2 330.8,439.8 330.8,439.8 332.5,439.7 	"/>
	<polygon class="st1" points="335.6,447 343.5,447.2 343.7,447.2 344.2,447.2 343.8,445.4 343.2,445.4 343,445.4 334.9,445.3 
		334.9,445.3 333.1,445.3 333.1,445.3 333.8,447 333.8,447 335.6,447 	"/>
	<polygon class="st1" points="338.1,452.8 336.2,452.7 336.2,452.7 336.6,453.8 338.4,453.4 338.4,453.4 	"/>
	<polygon class="st1" points="314.6,400.4 314.7,400.7 314.7,400.9 315.2,402.1 315.3,402.1 316,401.4 316.1,401.4 318.8,399.1 
		318.8,399.1 323,395.6 323,395.6 329.6,390 329.6,390 331.1,388.7 331.1,388.7 331.1,388.7 343.1,378.5 344.4,377.4 348.8,373.7 
		350.1,372.6 354.9,368.6 356.3,367.4 361.3,363.1 362.9,361.8 368.3,357.3 370,355.8 375.7,351 377.5,349.4 383.7,344.2 
		385.7,342.5 392.4,336.9 394.5,335.1 409.8,322.1 409.8,322 394.6,334.5 392.4,336.3 385.8,341.8 383.8,343.4 377.6,348.5 
		375.7,350 370,354.7 368.3,356.1 362.9,360.6 361.3,361.9 356.3,366 354.8,367.2 350.1,371.2 348.7,372.3 344.2,375.9 342.9,377 
		317.4,398 317.3,398.1 315.3,399.8 	"/>
	<polygon class="st1" points="311.5,392.9 311.5,393 312.2,394.7 312.2,394.7 312.9,394.2 312.9,394.2 342.3,372.1 343.7,371.1 
		348.3,367.6 349.7,366.5 354.6,362.9 356.1,361.7 361.3,357.8 362.9,356.6 368.4,352.5 370.2,351.1 376,346.8 377.9,345.4 
		384.1,340.7 386.1,339.2 392.8,334.2 394.9,332.6 409.5,321.6 409.5,321.5 394.4,332.5 392.9,333.5 386.2,338.4 384.2,339.9 
		377.9,344.5 376.1,345.8 370.2,350.1 368.5,351.4 362.9,355.4 361.3,356.6 356.1,360.4 354.6,361.5 349.6,365.1 348.1,366.2 
		343.5,369.6 342.1,370.6 312.2,392.5 312.2,392.5 311.5,392.9 	"/>
	<polygon class="st1" points="309.2,387.3 309.9,386.9 407.7,322.1 409.2,321.1 409.2,321.1 409.2,320.9 409,320.9 407.5,322 
		309.1,385.2 308.5,385.6 	"/>
	<polygon class="st1" points="395.1,328.5 400.4,325.5 401.9,324.6 407.2,321.5 408.7,320.6 409,320.5 408.9,320.3 408.7,320.4 
		407,321.4 401.8,324.4 401.8,324.4 400.2,325.2 394.8,328.2 394.8,328.2 394.9,328.2 	"/>
	<polygon class="st1" points="305.4,378.3 306.1,380.1 306.8,379.7 395.1,328.5 395.1,328.5 393.4,329.3 393.3,329.1 393.3,329.1 
		306,378 305.4,378.3 	"/>
	<polygon class="st1" points="303.2,372.8 303.7,372.5 350.2,349.2 351.8,348.4 357.2,345.7 358.9,344.8 364.3,342.2 366,341.3 
		371.4,338.5 373,337.7 378.4,335 380.1,334.2 385.5,331.5 387.2,330.7 392.5,327.9 394.2,327.2 399.6,324.4 401.3,323.6 
		406.7,320.9 408.3,320.1 408.7,319.9 408.6,319.7 408.3,320 408.3,320 406.7,320.8 406.6,320.8 401.1,323.4 401.1,323.4 
		401.2,323.6 399.6,324.4 399.5,324.2 399.5,324.2 394,326.8 393.7,327 394,326.8 394.2,327.1 392.6,327.9 392.4,327.7 392.4,327.7 
		387,330.2 387.2,330.6 385.5,331.5 385.3,331.1 385.2,331.1 379.9,333.7 380.1,334.2 378.4,335 378.2,334.5 378.2,334.5 
		372.8,337.1 373,337.7 371.4,338.5 371.1,337.9 371.1,337.9 365.7,340.5 366,341.2 364.3,342.1 364,341.3 364,341.3 358.6,343.9 
		358.9,344.8 357.2,345.7 357,344.8 351.6,347.3 351.3,347.5 351.6,347.3 351.8,348.4 350.2,349.2 349.9,348.1 349.9,348.2 
		302.9,370.8 302.4,371.1 	"/>
	<polygon class="st1" points="363.3,338.6 364.8,337.9 370.2,335.6 370.2,335.6 369.9,335 364.5,337.2 364.8,337.9 	"/>
	<polygon class="st1" points="370.4,335.5 371.8,335 377.3,332.6 377.8,332.4 377.3,332.6 377.1,332 377.1,332 371.6,334.3 
		371.9,334.9 	"/>
	<polygon class="st1" points="379,331.9 384.4,329.5 386.2,328.8 391.6,326.5 393.3,325.8 398.9,323.4 400.6,322.7 406.2,320.3 
		407.8,319.5 408.4,319.3 408.4,319.2 407.8,319.4 407.5,319.5 407.8,319.4 407.8,319.5 406.2,320.2 406.1,320.1 406.1,320.1 
		400.5,322.5 400.6,322.6 398.9,323.3 398.8,323.2 398.7,323.2 393.1,325.4 393.3,325.8 391.6,326.5 391.5,326.1 391.4,326.2 
		385.9,328.4 385.7,328.5 385.9,328.4 386.2,328.8 384.4,329.5 384.2,329.1 378.7,331.4 378.9,331.9 	"/>
	<polygon class="st1" points="300.2,365.5 300.6,365.4 349.2,344.6 350.8,343.9 356.1,341.6 357.8,340.9 363.1,338.7 363.1,338.7 
		362.9,337.8 362.8,337.9 357.6,340 357.5,340 357.8,340.9 356.1,341.6 355.9,340.7 350.6,342.9 349.8,343.2 350.6,342.9 
		350.8,343.9 349.2,344.6 349,343.5 348.9,343.6 299.9,363.7 299.5,363.9 	"/>
	<polygon class="st1" points="376.2,330.2 377.8,329.5 383.3,327.6 385.1,327 390.7,325 392.4,324.4 398.1,322.4 399.8,321.7 
		405.6,319.6 405.6,319.6 405.6,319.5 405.6,319.5 399.8,321.5 399.9,321.7 398.1,322.3 398,322.1 397.9,322.1 392.2,324.1 
		392.4,324.3 390.7,325 390.5,324.6 390.5,324.6 384.9,326.6 385.1,327 383.3,327.6 383.1,327.1 383.1,327.2 377.6,329 377.6,329 
		377.8,329.5 376.2,330.1 375.9,329.6 375.9,329.6 370.4,331.5 370.7,332.1 	"/>
	<polygon class="st1" points="349.8,339.6 355.1,337.7 356.7,337.1 362,335.2 363.7,334.6 369,332.7 370.6,332.1 369,332.7 
		368.8,332 368.7,332 363.4,333.9 363.4,333.9 363.7,334.6 362,335.2 361.8,334.5 356.5,336.3 356.5,336.3 356.7,337.1 355.1,337.7 
		354.9,336.8 354.9,336.8 349.7,338.6 349.6,338.6 349.9,339.5 348.2,340.1 348,339.2 298.8,355.9 298.8,357.8 348.3,340.1 	"/>
	<polygon class="st1" points="405.9,319.5 407.4,319 408.2,318.7 408.1,318.7 407.4,318.9 407.4,319 	"/>
	<polygon class="st1" points="391.5,322.9 397.4,321.3 399.2,320.7 405.1,318.9 406.9,318.4 407.9,318.2 407.8,318.1 406.9,318.3 
		406.6,318.4 406.9,318.3 406.9,318.4 405.1,318.9 405,318.8 399.1,320.5 399,320.5 399.2,320.7 397.4,321.2 397.2,321.1 
		397.2,321.1 391.3,322.6 390.4,322.8 391.3,322.6 	"/>
	<polygon class="st1" points="348.9,335.4 354.1,333.8 355.6,333.4 360.9,331.9 362.6,331.4 367.9,329.8 369.5,329.3 375,327.8 
		376.7,327.3 382.2,325.7 384,325.1 389.7,323.4 391.3,323 389.7,323.4 389.5,323.1 383.8,324.7 384.1,325.1 382.3,325.6 
		382.1,325.2 382,325.2 376.5,326.7 376.7,327.2 375,327.7 374.8,327.2 374.8,327.2 369.3,328.7 369.5,329.3 367.9,329.8 
		367.7,329.2 367.6,329.2 362.3,330.6 362.3,330.6 362.6,331.3 360.9,331.9 360.6,331.1 355.4,332.5 355.1,332.6 355.4,332.5 
		355.6,333.3 354,333.8 353.8,333 353.8,333 348.7,334.4 348.9,335.3 347.4,335.8 347.2,334.8 347.1,334.8 298.8,348.1 298.8,350 
		347.4,335.8 	"/>
	<polygon class="st1" points="388.8,321.9 388.6,321.6 388.6,321.6 388.5,321.6 382.8,322.8 382.7,322.8 383,323.2 388.8,321.9 	"/>
	<polygon class="st1" points="381.2,323.6 381,323.2 380.9,323.2 375.3,324.4 375.3,324.4 375.3,324.4 375.6,324.9 374.6,325.2 
		375.6,324.9 	"/>
	<polygon class="st1" points="346.5,331.6 346.3,330.6 346.2,330.6 343.1,331.3 343.4,331.8 341.6,332.2 341.3,331.7 341.3,331.7 
		335.4,333 335.6,333.5 333.8,333.9 333.6,333.4 327.7,334.6 327.9,335.3 326.2,335.7 325.9,335 325.9,335 320,336.3 320,336.3 
		320.3,337.1 318.5,337.4 318.3,336.6 312.6,337.9 312.5,337.9 312.7,338.8 310.9,339.2 310.7,338.3 305,339.5 305,339.5 
		305.2,340.5 303.4,340.9 303.3,339.8 303.3,339.8 298.8,340.8 298.8,342.5 346.5,331.6 	"/>
	<polygon class="st1" points="359.7,328.5 359.8,328.5 359.5,327.8 359.5,327.8 354.4,328.9 354.4,328.9 354.6,329.7 353.6,329.9 
		354.6,329.8 	"/>
	<polygon class="st1" points="373.9,325.3 373.9,325.3 373.7,324.7 373.6,324.8 368.1,326 368.1,326 368.4,326.6 367.2,326.8 
		368.4,326.6 	"/>
	<polygon class="st1" points="366.7,326.9 366.4,326.3 366.4,326.3 366.4,326.3 361.2,327.4 361.2,327.4 361.2,327.5 361.4,328.2 
		361.1,328.2 361.4,328.2 	"/>
	<polygon class="st1" points="348,331.2 346.9,331.5 348,331.3 353,330 353.1,330 352.8,329.2 352.8,329.2 352.8,329.2 347.8,330.3 
		347.8,330.3 347.8,330.3 	"/>
	<polygon class="st1" points="407.6,317.6 407.6,317.5 406.4,317.7 406.5,317.8 406.5,317.8 	"/>
	<polygon class="st1" points="404.6,318.3 404.8,318.2 404.6,318.3 404.5,318.2 404.5,318.2 398.3,319.5 398.2,319.5 398.2,319.5 
		398.4,319.7 398.4,319.7 	"/>
	<polygon class="st1" points="396.6,320.1 398.2,319.8 396.6,320.1 396.4,319.9 396.4,319.9 390.4,321.2 390.4,321.2 390.4,321.2 
		390.5,321.5 389.4,321.8 390.6,321.5 	"/>
	<polygon class="st1" points="404.5,318.2 404.6,318.3 404.8,318.2 406.5,317.8 406.5,317.8 406.4,317.7 406.4,317.7 345.4,243.9 
		344.8,243.9 404.5,318.2 	"/>
	<polygon class="st1" points="406.9,318.4 406.9,318.3 406.6,318.4 405,318.8 405,318.8 405.1,318.9 	"/>
	<polygon class="st1" points="405.6,319.6 405.9,319.5 407.4,319 407.4,318.9 407.3,318.9 405.6,319.5 405.6,319.5 405.6,319.6 	"/>
	<polygon class="st1" points="407.8,319.5 407.8,319.4 407.5,319.5 406.1,320.1 406.1,320.1 406.2,320.2 	"/>
	<polygon class="st1" points="408.3,320 408.3,320 408.2,319.9 406.6,320.8 406.6,320.8 406.7,320.8 	"/>
	<polygon class="st1" points="396.4,319.9 396.6,320.1 398.2,319.8 398.4,319.7 398.4,319.7 398.2,319.5 398.2,319.5 342.9,243.9 
		342.2,243.9 396.4,319.9 	"/>
	<polygon class="st1" points="399.2,320.7 399,320.5 399,320.5 397.2,321 397.2,321.1 397.4,321.2 	"/>
	<polygon class="st1" points="399.9,321.7 399.8,321.5 399.7,321.5 398,322.1 398,322.1 398.1,322.3 	"/>
	<polygon class="st1" points="400.6,322.6 400.5,322.5 400.4,322.4 398.7,323.2 398.8,323.2 398.9,323.3 	"/>
	<polygon class="st1" points="401.2,323.6 401.1,323.4 401.1,323.4 399.5,324.2 399.5,324.2 399.6,324.4 	"/>
	<polygon class="st1" points="388.6,321.6 388.8,321.9 388.8,321.9 389.4,321.8 390.5,321.5 390.4,321.2 390.4,321.2 340.4,243.9 
		339.9,243.9 388.6,321.6 	"/>
	<polygon class="st1" points="391.3,323 391.5,322.9 391.5,322.9 391.3,322.6 390.4,322.8 389.5,323.1 389.5,323.1 389.7,323.4 	"/>
	<polygon class="st1" points="392.4,324.3 392.2,324.1 392.2,324 390.5,324.6 390.5,324.6 390.7,325 	"/>
	<polygon class="st1" points="393.3,325.8 393.1,325.4 393.1,325.4 391.4,326.1 391.5,326.1 391.6,326.5 	"/>
	<polygon class="st1" points="394.2,327.1 394,326.8 393.7,327 392.4,327.6 392.4,327.7 392.6,327.9 	"/>
	<polygon class="st1" points="395.1,328.5 395.1,328.5 395.1,328.5 394.9,328.2 394.8,328.2 393.2,329.1 393.3,329.1 393.4,329.3 	
		"/>
	<polygon class="st1" points="381,323.2 381.2,323.6 381.2,323.6 383,323.2 383,323.2 382.7,322.8 382.7,322.8 338.1,243.9 
		337.6,243.9 380.9,323.2 	"/>
	<polygon class="st1" points="384.1,325.1 383.8,324.7 383.8,324.7 382.1,325.2 382.1,325.2 382.3,325.6 	"/>
	<polygon class="st1" points="385.1,327 384.9,326.6 384.9,326.5 383.1,327.1 383.1,327.1 383.3,327.6 	"/>
	<polygon class="st1" points="386.2,328.8 385.9,328.4 385.7,328.5 384.2,329.1 384.2,329.1 384.4,329.5 	"/>
	<polygon class="st1" points="387.2,330.6 387,330.2 385.2,331.1 385.3,331.1 385.5,331.5 	"/>
	<polygon class="st1" points="373.7,324.7 373.9,325.3 373.9,325.3 374.6,325.2 375.6,324.9 375.3,324.4 375.3,324.4 336,243.9 
		335.5,243.9 373.7,324.7 	"/>
	<polygon class="st1" points="376.7,327.2 376.5,326.7 376.5,326.7 374.8,327.2 374.8,327.2 375,327.7 	"/>
	<polygon class="st1" points="377.8,329.5 377.6,329 377.6,329 375.9,329.6 375.9,329.6 376.2,330.1 	"/>
	<polygon class="st1" points="377.8,332.4 379,331.9 378.9,331.9 378.7,331.4 378.7,331.4 377.1,332 377.1,332 377.3,332.6 	"/>
	<polygon class="st1" points="380.1,334.2 379.9,333.7 379.9,333.6 378.2,334.5 378.2,334.5 378.4,335 	"/>
	<polygon class="st1" points="373,337.7 372.8,337.1 372.8,337.1 371.1,337.9 371.1,337.9 371.4,338.5 	"/>
	<polygon class="st1" points="370.2,335.6 370.4,335.5 371.9,334.9 371.6,334.3 371.6,334.2 369.9,334.9 369.9,335 370.2,335.6 	"/>
	<polygon class="st1" points="370.6,332.1 370.7,332.1 370.7,332.1 370.4,331.5 370.4,331.5 368.8,332 368.8,332 369,332.7 	"/>
	<polygon class="st1" points="369.5,329.3 369.3,328.7 369.3,328.7 367.6,329.2 367.7,329.2 367.9,329.8 	"/>
	<polygon class="st1" points="366.4,326.3 366.7,326.9 366.8,326.9 367.2,326.8 368.4,326.6 368.1,326 368.1,326 334,243.9 
		333.5,243.9 366.4,326.3 	"/>
	<polygon class="st1" points="366,341.2 365.7,340.5 365.7,340.5 364,341.3 364,341.3 364.3,342.1 	"/>
	<polygon class="st1" points="363.1,338.7 363.3,338.6 364.8,337.9 364.5,337.2 364.5,337.1 362.9,337.8 362.9,337.8 363.1,338.7 	
		"/>
	<polygon class="st1" points="363.7,334.6 363.4,333.9 363.4,333.8 361.7,334.5 361.8,334.5 362,335.2 	"/>
	<polygon class="st1" points="362.6,331.3 362.3,330.6 362.3,330.6 360.6,331.1 360.6,331.1 360.9,331.9 	"/>
	<polygon class="st1" points="359.5,327.8 359.8,328.5 359.8,328.5 361.1,328.2 361.4,328.2 361.2,327.5 361.2,327.4 332.1,243.9 
		331.6,243.9 359.5,327.8 	"/>
	<polygon class="st1" points="358.9,344.8 358.6,343.9 358.6,343.9 357,344.7 357,344.8 357.2,345.7 	"/>
	<polygon class="st1" points="357.8,340.9 357.5,340 357.5,340 355.9,340.7 355.9,340.7 356.1,341.6 	"/>
	<polygon class="st1" points="356.7,337.1 356.5,336.3 356.5,336.2 354.9,336.8 354.9,336.8 355.1,337.7 	"/>
	<polygon class="st1" points="355.6,333.3 355.4,332.5 355.1,332.6 353.8,333 353.8,333 354,333.8 	"/>
	<polygon class="st1" points="346.7,306.2 347.3,308 347.1,308 348.7,314 348.9,314 349.4,315.7 349.2,315.8 350.8,321.7 
		351.2,321.7 351.7,323.5 351.3,323.5 352.8,329.2 352.8,329.2 353.1,330 353.1,330.1 353.6,329.9 354.6,329.7 354.4,328.9 
		354.4,328.9 330.2,243.9 329.8,243.9 346.6,306.2 	"/>
	<polygon class="st1" points="351.8,348.4 351.6,347.3 351.3,347.5 349.9,348.1 349.9,348.1 350.2,349.2 	"/>
	<polygon class="st1" points="350.8,343.9 350.6,342.9 349.8,343.2 349,343.5 349,343.5 349.2,344.6 	"/>
	<polygon class="st1" points="349.9,339.5 349.6,338.6 349.6,338.6 348,339.1 348,339.2 348.2,340.1 	"/>
	<polygon class="st1" points="348.9,335.3 348.7,334.4 348.7,334.4 347.2,334.8 347.2,334.8 347.4,335.8 	"/>
	<polygon class="st1" points="344.3,314.5 343,308.7 341.7,308.9 342.9,314.7 	"/>
	<polygon class="st1" points="344.5,322.1 344.7,322.1 345.9,322 344.7,316.3 344.7,316.2 343.3,316.4 	"/>
	<polygon class="st1" points="334.3,270.1 333.7,270.4 335,276.5 335.7,276.1 	"/>
	<polygon class="st1" points="338.6,293.7 339.8,299.5 340.9,299.3 339.6,293.5 	"/>
	<polygon class="st1" points="344.9,323.8 346.3,330.6 346.3,330.6 346.5,331.6 346.5,331.6 346.9,331.5 348,331.2 347.8,330.3 
		347.8,330.3 346.3,323.7 345.6,323.8 	"/>
	<polygon class="st1" points="336.9,286.1 338.2,292 339.2,291.7 337.8,285.7 	"/>
	<polygon class="st1" points="332.2,260.4 328.5,243.9 328.1,243.9 331.6,260.7 	"/>
	<polygon class="st1" points="335.3,278.3 336.6,284.3 337.4,283.9 336.1,277.9 	"/>
	<polygon class="st1" points="333.8,268.3 334,268.3 332.6,262.2 332.2,262.4 332,262.5 333.3,268.6 333.8,268.3 	"/>
	<polygon class="st1" points="334.1,268.9 334.3,270.1 334,268.3 334,268.8 	"/>
	<polygon class="st1" points="340.2,301.4 341.4,307.2 342.6,307 341.3,301.1 	"/>
	<polygon class="st1" points="344.9,323.8 345.6,323.8 344.7,322.1 344.5,322.1 338.7,322.4 339.5,324 	"/>
	<polygon class="st1" points="337.6,324.1 336.9,322.5 330.9,322.8 331.6,324.3 	"/>
	<polygon class="st1" points="329.9,324.4 329.3,323 323.5,323.3 324,324.7 	"/>
	<polygon class="st1" points="300.9,324.5 298.8,324.6 298.8,325.7 301,325.6 	"/>
	<polygon class="st1" points="322.3,324.7 321.8,323.3 316.3,323.7 316.7,325 	"/>
	<polygon class="st1" points="315,325 314.6,323.8 309.3,324.1 309.6,325.3 	"/>
	<polygon class="st1" points="307.9,325.4 307.6,324.2 302.4,324.5 302.6,325.6 	"/>
	<polygon class="st1" points="351.2,321.7 350.8,321.7 351.3,323.5 351.7,323.5 	"/>
	<polygon class="st1" points="301.7,320.6 306.8,320.1 308.3,319.9 313.4,319.4 315,319.2 320.2,318.7 321.8,318.6 327.2,318 
		328.8,317.9 334.3,317.3 336,317.1 341.6,316.6 343.3,316.4 344.7,316.2 344.3,314.5 342.9,314.7 342.4,314.7 340.7,314.9 
		335.2,315.5 333.5,315.7 328.2,316.4 326.6,316.5 321.3,317.2 319.7,317.3 314.5,318 313,318.1 308,318.7 306.5,318.9 301.5,319.5 
		300.1,319.6 298.8,319.8 298.8,320.9 300.3,320.8 	"/>
	<polygon class="st1" points="348.9,314 348.7,314 349.2,315.8 349.4,315.7 	"/>
	<polygon class="st1" points="341.7,308.9 343,308.7 342.6,307 341.4,307.2 298.8,314.7 298.8,315.9 	"/>
	<polygon class="st1" points="346.7,306.2 346.6,306.2 347.1,308 347.3,308 	"/>
	<polygon class="st1" points="341.3,301.1 340.9,299.3 339.8,299.5 298.8,309.4 298.8,310.7 340.2,301.4 	"/>
	<polygon class="st1" points="339.6,293.5 339.2,291.7 338.2,292 298.8,304 298.8,305.3 338.6,293.7 	"/>
	<polygon class="st1" points="337.8,285.7 337.4,283.9 336.6,284.3 298.8,298.4 298.8,299.7 336.9,286.1 	"/>
	<polygon class="st1" points="324.4,282.7 323.9,281.4 318.4,283.8 318.5,283.9 318.8,284.8 317.1,285.2 316.8,284.5 298.8,292.5 
		298.8,293.9 324.5,282.9 	"/>
	<polygon class="st1" points="325.5,280.7 326.1,282.2 331.6,279.8 330.8,278.3 	"/>
	<polygon class="st1" points="335.7,276.1 335,276.5 332.4,277.6 333.2,279.2 335.3,278.3 336.1,277.9 	"/>
	<polygon class="st1" points="301.1,285.3 298.8,286.5 298.8,287.9 301.4,286.6 	"/>
	<polygon class="st1" points="302.8,284.4 303.1,285.8 308.3,283.1 307.9,281.7 	"/>
	<polygon class="st1" points="327.5,271.6 322.6,274.1 323.3,275.6 329.8,272.4 328.3,273.2 	"/>
	<polygon class="st1" points="316.1,277.5 316.6,279 321.8,276.4 321.2,274.9 	"/>
	<polygon class="st1" points="309.5,281 309.9,282.3 315.1,279.8 314.6,278.3 	"/>
	<polygon class="st1" points="334.1,268.9 334,268.8 333.8,268.3 333.3,268.6 329,270.8 329.8,272.4 333.7,270.4 334.3,270.1 	"/>
	<polygon class="st1" points="325.7,264.3 326.4,265.7 330.9,263.2 330,261.7 	"/>
	<polygon class="st1" points="299.8,279.6 298.8,280.2 298.8,281.7 300.2,280.9 	"/>
	<polygon class="st1" points="319.9,267.7 320.5,269.1 325.1,266.5 324.4,265 	"/>
	<polygon class="st1" points="301.4,278.6 301.7,280 306.7,277.2 306.2,275.8 	"/>
	<polygon class="st1" points="313.9,271.2 314.4,272.7 319.1,269.9 318.5,268.5 	"/>
	<polygon class="st1" points="307.7,274.9 308.1,276.3 313,273.5 312.5,272.1 	"/>
	<polygon class="st1" points="332.2,260.4 331.6,260.7 331.4,260.9 332.2,262.4 332.6,262.2 	"/>
	<polygon class="st1" points="302.6,325.6 302.4,324.5 300.9,324.5 301,325.6 303.2,339.6 303.3,339.8 303.4,340.9 305.2,340.5 
		305,339.5 305,339.3 	"/>
	<polygon class="st1" points="309.6,325.3 309.3,324.1 307.6,324.2 307.9,325.4 310.7,338.1 310.7,338.3 310.9,339.2 312.7,338.8 
		312.5,337.9 312.5,337.7 	"/>
	<polygon class="st1" points="316.7,325 316.3,323.7 314.6,323.8 315,325 318.2,336.4 318.3,336.6 318.5,337.4 320.3,337.1 
		320,336.3 320,336 	"/>
	<polygon class="st1" points="324,324.7 323.5,323.3 321.8,323.3 322.3,324.7 325.8,334.8 325.9,335 326.2,335.7 327.9,335.3 
		327.7,334.6 327.6,334.4 	"/>
	<polygon class="st1" points="331.6,324.3 330.9,322.8 329.3,323 329.9,324.4 333.5,333.1 333.6,333.4 333.8,333.9 335.6,333.5 
		335.4,333 335.3,332.8 	"/>
	<polygon class="st1" points="339.5,324 338.7,322.4 336.9,322.5 337.6,324.1 341.2,331.5 341.3,331.7 341.6,332.2 343.4,331.8 
		343.1,331.3 343.1,331.1 	"/>
	<polygon class="st1" points="345.6,323.8 346.3,323.7 345.9,322 344.7,322.1 	"/>
	<polygon class="st1" points="301.1,285.3 301.1,285.3 301.4,286.6 303.1,285.8 302.8,284.4 	"/>
	<polygon class="st1" points="300.2,280.9 301.7,280 301.4,278.6 298.8,267.6 298.8,275.1 299.8,279.6 	"/>
	<polygon class="st1" points="307.9,281.7 308.3,283.1 309.9,282.3 309.9,282.3 309.5,281 	"/>
	<polygon class="st1" points="306.7,277.2 308.1,276.3 307.7,274.9 298.8,245.2 298.8,249.6 306.2,275.8 	"/>
	<polygon class="st1" points="317.1,285.2 318.8,284.8 318.5,283.9 318.4,283.8 316.8,284.5 	"/>
	<polygon class="st1" points="314.6,278.3 315.1,279.8 316.6,279 316.1,277.5 	"/>
	<polygon class="st1" points="313,273.5 314.4,272.7 313.9,271.2 303.9,243.9 302.6,243.9 312.5,272.1 	"/>
	<polygon class="st1" points="323.9,281.4 324.4,282.7 324.5,282.9 326.1,282.2 325.5,280.7 	"/>
	<polygon class="st1" points="321.2,274.9 321.8,276.4 323.3,275.6 322.6,274.1 	"/>
	<polygon class="st1" points="319.1,269.9 320.5,269.1 319.9,267.7 309.6,243.9 308.2,243.9 318.5,268.5 	"/>
	<polygon class="st1" points="325.1,266.5 326.4,265.7 325.7,264.3 315.4,243.9 314,243.9 324.4,265 	"/>
	<polygon class="st1" points="327.5,271.6 328.3,273.2 329.8,272.4 329,270.8 	"/>
	<polygon class="st1" points="330.8,278.3 331.6,279.8 333.2,279.2 332.4,277.6 	"/>
	<polygon class="st1" points="333.8,268.3 334,268.8 334,268.3 333.8,268.3 	"/>
	<polygon class="st1" points="330.9,263.2 332,262.5 332.2,262.4 331.4,260.9 331.3,260.9 321.5,243.9 320,243.9 330,261.7 	"/>
	<polygon class="st1" points="463.1,401.1 488.1,243.9 487.8,243.9 460.9,403 	"/>
	<polygon class="st1" points="471.8,393.8 489.5,243.9 489.2,243.9 469.8,395.5 	"/>
	<polygon class="st1" points="479.8,387 490.8,243.9 490.5,243.9 477.9,388.6 	"/>
	<polygon class="st1" points="485.5,382.2 487.2,380.8 491.8,252.5 492,249.8 492.2,243.9 491.8,243.9 491.6,249.7 	"/>
	<polygon class="st1" points="493.2,252.7 493.2,261.6 493.2,264.3 493.1,273.2 493.1,275.9 493,284.9 493,287.5 493,296.4 
		492.9,299.2 492.9,308.1 492.8,310.8 492.8,319.8 492.8,322.4 492.6,376.2 494.1,374.9 493.9,322.1 493.9,319.4 493.8,310.5 
		493.8,307.9 493.8,299.1 493.8,296.3 493.7,287.4 493.7,284.8 493.7,275.9 493.7,273.2 493.6,264.4 493.6,261.6 493.5,252.8 
		493.5,250 493.5,243.9 493.2,243.9 493.2,250 	"/>
	<polygon class="st1" points="494.9,253 495.2,261.7 495.3,264.5 495.6,273.2 495.6,273.3 495.7,275.8 496,284.6 496.1,287.3 
		496.5,295.8 496.5,298.5 496.9,307.1 497,309.7 497.2,318.2 497.4,320.8 499.1,370.6 500.6,369.4 498.4,320.5 498.2,317.9 
		497.9,309.4 497.7,306.8 497.4,298.4 497.2,295.7 496.9,287.2 496.7,284.6 496.3,275.8 496.2,273.3 495.8,264.5 495.7,261.8 
		495.3,253.1 495.3,253 495.2,250.3 494.8,243.9 494.6,243.9 494.8,250.3 	"/>
	<polygon class="st1" points="496.6,253.2 497.3,262 497.5,264.7 498.2,273.3 498.4,275.8 499.1,284.4 499.2,286.9 499.9,295.2 
		500.1,297.9 500.7,306.1 500.9,308.6 501.5,316.7 501.8,319.2 505.3,365.4 506.7,364.3 502.7,318.9 502.5,316.4 501.8,308.4 
		501.6,305.9 500.8,297.7 500.7,295.2 500,286.9 499.7,284.3 499,275.8 498.8,273.3 498,264.7 497.7,262 497,253.3 496.8,250.7 
		496.2,243.9 495.9,243.9 496.5,250.6 	"/>
	<polygon class="st1" points="498.4,253.6 499.4,262.1 499.7,264.9 500.7,273.3 501,275.8 502,284.1 502.3,286.6 503.3,294.6 
		503.5,297.2 504.5,305.1 504.8,307.5 505.7,315.3 506,317.6 511,360.6 512.3,359.5 506.9,317.3 506.6,315 505.6,307.3 505.4,304.8 
		504.3,297.1 504,294.6 503,286.5 502.7,284 501.6,275.8 501.3,273.3 500.2,264.9 499.9,262.2 498.8,253.7 498.5,251 497.5,243.9 
		497.2,243.9 498.1,250.9 	"/>
	<polygon class="st1" points="520.6,331.2 520.2,329.4 521.2,329.1 519.8,323.4 518.8,323.6 518.5,321.8 519.3,321.6 517.9,315.8 
		517.1,315.9 516.6,314.2 517.5,314 516.1,308.1 515.3,308.2 514.9,306.4 515.6,306.4 514.1,300.4 513.5,300.4 513.1,298.6 
		513.7,298.6 512.2,292.6 511.7,292.6 511.2,290.8 511.8,290.8 511,287.7 510.1,287.9 522.7,342.5 522.7,338.5 522.3,338.7 
		521.9,337 522.7,336.7 522.7,335.3 521.6,330.9 	"/>
	<polygon class="st1" points="509.4,281.1 508.6,281.3 509.7,286.4 510.6,286.2 	"/>
	<polygon class="st1" points="500.6,245.2 500.2,245.1 501.5,251 502,251.1 	"/>
	<polygon class="st1" points="507.8,274.4 507,274.5 508.2,279.7 509,279.5 	"/>
	<polygon class="st1" points="506,267.4 505.3,267.4 506.6,272.8 507.3,272.7 	"/>
	<polygon class="st1" points="502.5,252.8 502,252.8 503.3,258.5 503.8,258.5 	"/>
	<polygon class="st1" points="504.3,260.2 503.7,260.2 505,265.8 505.6,265.8 	"/>
	<polygon class="st1" points="500.6,245.2 522.7,247.8 522.7,246.3 504.1,243.9 499.9,243.9 500.2,245.1 	"/>
	<polygon class="st1" points="501.5,251 502,252.8 502.5,252.8 522.7,253.9 522.7,252.5 502,251.1 	"/>
	<polygon class="st1" points="503.3,258.5 503.7,260.2 504.3,260.2 522.7,260.1 522.7,258.7 503.8,258.5 	"/>
	<polygon class="st1" points="505,265.8 505.3,267.4 506,267.4 522.7,266.3 522.7,264.8 505.6,265.8 	"/>
	<polygon class="st1" points="506.6,272.8 507,274.5 507.8,274.4 522.7,272.4 522.7,270.9 507.3,272.7 	"/>
	<polygon class="st1" points="508.2,279.7 508.6,281.3 509.4,281.1 515.1,280 515,279.6 516.8,279.3 516.9,279.7 522.7,278.6 
		522.7,277.1 509,279.5 	"/>
	<polygon class="st1" points="519.3,285.4 519.3,285.4 519.3,285.4 519.4,285.6 519.4,285.6 522.7,284.7 522.7,283.3 518.8,284.2 	
		"/>
	<polygon class="st1" points="517.7,286 517.4,285.3 517.1,284.6 517.1,284.6 517.1,284.6 510.6,286.2 509.7,286.4 510.1,287.9 
		511,287.7 	"/>
	<polygon class="st1" points="522.3,292.7 520.6,292.7 520.6,292.7 520.6,292.7 522.7,297.6 522.7,293.7 522.3,292.7 	"/>
	<polygon class="st1" points="517.1,284.6 517.1,284.6 517.4,285.3 517.7,286 517.7,286 519.9,291 519.9,291 521.7,291 519.4,285.6 
		519.4,285.6 519.3,285.4 519.3,285.4 517.4,285.2 	"/>
	<polygon class="st1" points="516.8,279.3 515,279.6 515.1,280 516.9,279.7 	"/>
	<polygon class="st1" points="522.3,338.7 522.7,338.5 522.7,336.7 521.9,337 	"/>
	<polygon class="st1" points="521.2,329.1 520.2,329.4 520.6,331.2 521.6,330.9 521.8,330.8 522.7,330.5 522.7,328.7 521.4,329.1 	
		"/>
	<polygon class="st1" points="519.3,321.6 518.5,321.8 518.8,323.6 519.8,323.4 520,323.3 522.7,322.7 522.7,320.8 519.5,321.5 	"/>
	<polygon class="st1" points="517.5,314 516.6,314.2 517.1,315.9 517.9,315.8 518.1,315.8 522.7,314.9 522.7,313.2 517.7,314 	"/>
	<polygon class="st1" points="515.6,306.4 514.9,306.4 515.3,308.2 516.1,308.1 516.3,308.1 522.7,307.4 522.7,305.7 515.8,306.4 	
		"/>
	<polygon class="st1" points="513.7,298.6 513.1,298.6 513.5,300.4 514.1,300.4 514.3,300.4 522.7,299.9 522.7,298.3 513.9,298.6 	
		"/>
	<polygon class="st1" points="519.9,291 512,290.8 511.8,290.8 511.2,290.8 511.7,292.6 512.2,292.6 512.4,292.6 520.6,292.7 
		520.6,292.7 522.3,292.7 522.3,292.7 521.7,291 521.7,291 519.9,291 	"/>
	<polygon class="st1" points="517.4,285.2 519.3,285.4 519.3,285.4 518.8,284.2 517.1,284.6 517.1,284.6 	"/>
	<polygon class="st1" points="511,360.6 506.7,364.3 505.3,365.4 500.6,369.4 499.1,370.6 494.1,374.9 492.6,376.2 487.2,380.8 
		485.5,382.2 479.8,387 477.9,388.6 471.8,393.8 469.8,395.5 463.1,401.1 460.9,403 445.7,415.9 445.7,416 460.9,403.5 463,401.7 
		469.7,396.3 471.7,394.7 477.9,389.6 479.7,388 485.4,383.3 487.2,381.9 492.5,377.5 494.1,376.1 499.2,372 500.7,370.8 
		505.4,366.9 506.8,365.8 511.2,362.1 512.5,361 522.7,352.6 522.7,350.7 512.3,359.5 	"/>
	<polygon class="st1" points="511.8,367 507.2,370.4 505.7,371.5 500.9,375.2 499.4,376.3 494.2,380.2 492.5,381.4 487.1,385.6 
		485.3,386.9 479.5,391.2 477.6,392.6 471.3,397.4 469.4,398.8 462.7,403.9 460.5,405.5 445.9,416.4 446,416.6 461.1,405.5 
		462.6,404.5 469.3,399.6 471.3,398.2 477.5,393.6 479.4,392.2 485.2,388 487,386.7 492.5,382.6 494.2,381.4 499.4,377.6 
		500.9,376.5 505.9,372.9 507.3,371.8 512,368.4 513.3,367.4 522.7,360.6 522.7,358.7 513.2,365.9 	"/>
	<polygon class="st1" points="446.3,416.9 446.2,417 446.3,417.1 446.4,417.1 448,416.1 522.7,368 522.7,366.3 447.8,416 	"/>
	<polygon class="st1" points="460.4,409.5 462,408.7 462.2,408.9 462.2,408.9 522.7,375 522.7,373.4 460.4,409.5 	"/>
	<polygon class="st1" points="460.4,409.5 455.1,412.5 453.5,413.4 448.3,416.5 446.7,417.4 446.5,417.5 446.6,417.7 446.8,417.6 
		448.4,416.6 453.6,413.7 453.7,413.7 455.3,412.8 460.6,409.9 460.8,409.8 460.6,409.9 	"/>
	<polygon class="st1" points="503.7,389.6 498.3,392.3 496.6,393.2 491.2,395.9 489.5,396.8 484.1,399.5 482.4,400.3 477,403 
		475.4,403.8 470,406.6 468.3,407.4 462.9,410.1 461.3,410.9 455.8,413.6 454.2,414.4 448.8,417.1 447.2,417.9 446.8,418.2 
		446.8,418.3 447.2,418.1 447.2,418 448.8,417.2 448.9,417.3 454.3,414.6 454.3,414.6 454.2,414.5 455.9,413.7 456,413.8 456,413.8 
		461.5,411.2 461.8,411 461.4,411.2 461.3,410.9 462.9,410.1 463.1,410.4 463.1,410.4 468.5,407.8 468.3,407.4 470,406.6 470.2,407 
		470.2,406.9 475.6,404.3 475.4,403.9 477,403 477.3,403.5 477.3,403.5 482.7,400.9 482.5,400.3 484.1,399.5 484.3,400.1 
		484.4,400.1 489.8,397.5 489.5,396.8 491.2,395.9 491.4,396.7 491.4,396.7 496.8,394.1 496.6,393.2 498.2,392.4 498.4,393.3 
		503.9,390.7 504.3,390.5 503.9,390.7 503.7,389.7 505.3,388.8 505.5,389.9 505.6,389.9 522.7,381.6 522.7,380.1 505.3,388.8 	"/>
	<polygon class="st1" points="504.7,394.1 499.3,396.4 497.7,397.1 492.3,399.4 492.3,399.4 492.6,400.2 492.6,400.2 497.9,398 
		497.9,398 497.7,397.1 499.3,396.4 499.6,397.3 504.9,395.2 505.3,395 504.9,395.2 504.6,394.2 506.3,393.5 506.5,394.5 
		506.5,394.5 522.7,387.8 522.7,386.4 506.2,393.5 	"/>
	<polygon class="st1" points="484.6,402.7 483.6,403.1 478.1,405.5 477.4,405.8 478.1,405.5 478.4,406 478.4,406 483.9,403.8 
		483.6,403.1 	"/>
	<polygon class="st1" points="492.2,399.4 490.7,400.1 485.3,402.4 485.3,402.4 485.5,403.1 490.9,400.9 490.6,400.1 	"/>
	<polygon class="st1" points="476.5,406.2 471.1,408.5 469.3,409.2 463.8,411.5 462.1,412.3 456.6,414.6 454.9,415.4 449.3,417.8 
		447.6,418.5 447.1,418.7 447.1,418.9 447.7,418.6 448,418.5 447.7,418.6 447.6,418.5 449.3,417.8 449.4,417.9 449.4,417.9 
		455,415.6 454.9,415.4 456.6,414.7 456.7,414.8 456.7,414.8 462.3,412.6 462.1,412.3 463.8,411.6 464,411.9 464.1,411.9 
		469.6,409.6 469.3,409.2 471.1,408.5 471.3,408.9 476.7,406.6 476.5,406.2 	"/>
	<polygon class="st1" points="505.6,398.5 500.4,400.3 500.4,400.4 500.6,401.2 500.6,401.2 505.8,399.4 505.8,399.4 505.6,398.5 
		507.2,397.9 507.4,398.9 522.7,393.7 522.7,392.3 507.2,397.9 	"/>
	<polygon class="st1" points="500.4,400.4 498.8,400.9 493.5,402.8 491.8,403.4 486.4,405.3 484.8,405.9 479.3,407.9 477.7,408.5 
		472.1,410.4 470.4,411.1 464.8,413 463.1,413.7 457.4,415.7 455.6,416.4 449.8,418.4 449.8,418.4 449.9,418.5 449.9,418.5 
		455.7,416.5 455.6,416.4 457.3,415.7 457.5,415.9 457.5,415.9 463.2,414 463.1,413.7 464.8,413.1 465,413.4 465,413.4 470.6,411.5 
		470.4,411.1 472.1,410.5 472.4,410.9 472.4,410.9 477.9,409 477.9,409 477.7,408.5 479.3,407.9 479.6,408.4 479.6,408.4 485,406.6 
		484.8,405.9 486.4,405.3 486.7,406 486.7,406 492.1,404.2 492.1,404.2 491.8,403.4 493.5,402.8 493.7,403.5 499,401.8 499,401.8 
		498.8,401 	"/>
	<polygon class="st1" points="449.7,418.4 448.1,419 447.3,419.3 447.3,419.4 448.1,419.2 448.1,419.1 	"/>
	<polygon class="st1" points="464,415.1 458.1,416.7 456.3,417.3 450.3,419.1 448.5,419.6 447.6,419.9 447.6,419.9 448.6,419.7 
		448.9,419.6 448.6,419.7 448.5,419.6 450.3,419.1 450.4,419.2 450.4,419.2 456.4,417.5 456.4,417.5 456.3,417.4 458.1,416.8 
		458.3,417 458.3,417 464.2,415.4 464.7,415.3 464.2,415.4 	"/>
	<polygon class="st1" points="499.8,404.7 501.1,404.3 499.8,404.7 494.6,406.2 492.9,406.7 487.6,408.2 485.9,408.7 480.4,410.3 
		478.7,410.8 473.2,412.4 471.4,412.9 465.7,414.6 464.2,415 465.8,414.6 466,414.9 471.6,413.3 471.6,413.3 471.4,413 473.2,412.4 
		473.4,412.8 473.4,412.8 479,411.3 478.8,410.8 480.4,410.3 480.7,410.8 480.7,410.8 486.2,409.4 485.9,408.7 487.6,408.2 
		487.8,408.8 487.8,408.8 493.2,407.4 493.2,407.4 492.9,406.7 494.6,406.2 494.8,406.9 500.1,405.5 500.5,405.4 500,405.5 	"/>
	<polygon class="st1" points="506.6,402.7 501.4,404.2 501.6,405 501.6,405 506.8,403.7 506.6,402.7 508.1,402.3 508.3,403.2 
		508.3,403.2 522.7,399.2 522.7,398 508.1,402.2 	"/>
	<polygon class="st1" points="474.5,414.9 480.1,413.6 480.2,413.6 480.2,413.6 479.9,413.1 480.7,412.9 479.9,413.1 474.3,414.4 
		474.5,414.9 	"/>
	<polygon class="st1" points="481.8,413.3 487.3,412.1 487.4,412.1 487.1,411.5 488.4,411.2 487.1,411.4 481.6,412.7 481.6,412.7 
		481.8,413.3 	"/>
	<polygon class="st1" points="451,419.9 451,419.9 457.2,418.6 457.2,418.6 457.2,418.6 457,418.3 457,418.3 450.9,419.8 
		450.6,419.8 450.9,419.8 	"/>
	<polygon class="st1" points="466.9,416.5 466.9,416.5 472.7,415.2 472.7,415.2 472.5,414.8 466.7,416.1 466.7,416.1 466.9,416.5 	
		"/>
	<polygon class="st1" points="502.6,408.8 502.6,408.8 507.6,407.8 507.7,407.7 507.7,407.7 507.5,406.8 508.8,406.5 507.5,406.8 
		502.4,408 502.4,408 502.6,408.8 	"/>
	<polygon class="st1" points="489,411.7 489,411.7 494.3,410.6 494.3,410.6 494.3,410.6 494.1,409.9 494.3,409.8 494,409.9 
		488.7,411.1 489,411.7 	"/>
	<polygon class="st1" points="459.1,418.1 459.1,418.2 465.1,416.9 465.1,416.9 465.1,416.8 464.9,416.5 465.8,416.3 464.9,416.5 
		458.9,417.9 457.3,418.3 458.9,417.9 	"/>
	<polygon class="st1" points="509,406.4 509.2,407.4 509.2,407.4 509.2,407.4 512.3,406.7 512.1,406.2 513.9,405.9 514.1,406.3 
		514.2,406.3 520.1,405.1 519.8,404.5 521.6,404.1 521.8,404.7 522.7,404.5 522.7,403.3 509,406.4 	"/>
	<polygon class="st1" points="495.9,410.3 501.1,409.1 501.1,409.1 500.9,408.3 502,408.1 500.9,408.3 495.7,409.5 495.7,409.5 
		495.9,410.3 	"/>
	<polygon class="st1" points="449,420.2 447.9,420.5 447.9,420.6 449,420.3 449,420.2 	"/>
	<polygon class="st1" points="451,419.9 450.9,419.8 450.6,419.8 449,420.2 449,420.2 449,420.3 449,420.3 490.6,470.6 491.7,470.6 
		451,419.9 	"/>
	<polygon class="st1" points="448.5,419.6 448.6,419.7 448.9,419.6 450.5,419.2 450.4,419.2 450.3,419.1 	"/>
	<polygon class="st1" points="449.8,418.4 449.7,418.4 448.1,419.1 448.1,419.2 448.1,419.2 449.9,418.5 449.9,418.5 449.8,418.4 	
		"/>
	<polygon class="st1" points="447.6,418.5 447.7,418.6 448,418.5 449.4,417.9 449.4,417.9 449.3,417.8 	"/>
	<polygon class="st1" points="447.2,418 447.2,418.1 447.2,418.1 448.9,417.3 448.9,417.3 448.8,417.2 	"/>
	<polygon class="st1" points="459.1,418.1 458.9,417.9 457.3,418.3 457,418.3 457,418.3 457.2,418.6 457.2,418.6 495.4,470.6 
		496.5,470.6 459.1,418.2 	"/>
	<polygon class="st1" points="456.3,417.4 456.4,417.5 456.5,417.5 458.3,417 458.3,417 458.1,416.8 	"/>
	<polygon class="st1" points="455.6,416.4 455.7,416.5 455.7,416.6 457.5,415.9 457.5,415.9 457.3,415.7 	"/>
	<polygon class="st1" points="454.9,415.4 455,415.6 455,415.6 456.7,414.9 456.7,414.8 456.6,414.7 	"/>
	<polygon class="st1" points="454.2,414.5 454.3,414.6 454.3,414.7 456,413.8 456,413.8 455.9,413.7 	"/>
	<polygon class="st1" points="466.9,416.5 466.7,416.1 466.7,416.1 465.8,416.3 464.9,416.5 465.1,416.8 465.1,416.9 499.8,470.6 
		500.8,470.6 466.9,416.5 	"/>
	<polygon class="st1" points="464.2,415 464,415.1 464,415.1 464.2,415.4 464.7,415.3 466,414.9 466,414.9 465.8,414.6 	"/>
	<polygon class="st1" points="463.1,413.7 463.2,414 463.3,414 465,413.4 465,413.4 464.8,413.1 	"/>
	<polygon class="st1" points="462.1,412.3 462.3,412.6 462.4,412.6 464,411.9 464,411.9 463.8,411.6 	"/>
	<polygon class="st1" points="461.3,410.9 461.4,411.2 461.8,411 463.1,410.4 463.1,410.4 462.9,410.1 	"/>
	<polygon class="st1" points="460.4,409.5 460.4,409.5 460.4,409.5 460.6,409.9 460.8,409.8 462.2,408.9 462.2,408.9 462,408.7 	"/>
	<polygon class="st1" points="474.5,414.9 474.3,414.4 474.3,414.4 472.5,414.8 472.5,414.8 472.7,415.2 472.7,415.2 504,470.6 
		505,470.6 474.5,414.9 	"/>
	<polygon class="st1" points="471.4,413 471.6,413.3 471.7,413.3 473.4,412.9 473.4,412.8 473.2,412.4 	"/>
	<polygon class="st1" points="470.4,411.1 470.6,411.5 470.6,411.5 472.4,410.9 472.4,410.9 472.1,410.5 	"/>
	<polygon class="st1" points="469.3,409.2 469.6,409.6 469.6,409.6 471.3,408.9 471.3,408.9 471.1,408.5 	"/>
	<polygon class="st1" points="468.3,407.4 468.5,407.8 470.2,407 470.2,407 470,406.6 	"/>
	<polygon class="st1" points="481.8,413.3 481.6,412.7 481.6,412.7 480.7,412.9 479.9,413.1 480.2,413.6 480.2,413.6 508,470.6 
		508.9,470.6 481.8,413.3 	"/>
	<polygon class="st1" points="478.8,410.8 479,411.3 479,411.3 480.7,410.9 480.7,410.8 480.4,410.3 	"/>
	<polygon class="st1" points="477.7,408.5 477.9,409 477.9,409 479.6,408.5 479.6,408.4 479.3,407.9 	"/>
	<polygon class="st1" points="477.4,405.8 476.5,406.1 476.5,406.2 476.7,406.6 476.8,406.7 478.4,406 478.4,406 478.1,405.5 	"/>
	<polygon class="st1" points="475.4,403.9 475.6,404.3 475.6,404.4 477.3,403.6 477.3,403.5 477,403 	"/>
	<polygon class="st1" points="482.5,400.3 482.7,400.9 482.7,400.9 484.3,400.1 484.3,400.1 484.1,399.5 	"/>
	<polygon class="st1" points="485.3,402.4 484.6,402.7 483.6,403.1 483.9,403.8 483.9,403.8 485.6,403.1 485.5,403.1 485.3,402.4 	
		"/>
	<polygon class="st1" points="484.8,405.9 485,406.6 485,406.6 486.7,406 486.7,406 486.4,405.3 	"/>
	<polygon class="st1" points="485.9,408.7 486.2,409.4 486.2,409.4 487.8,408.9 487.8,408.8 487.6,408.2 	"/>
	<polygon class="st1" points="489,411.7 488.7,411.1 488.7,411.1 488.4,411.2 487.1,411.5 487.4,412.1 487.4,412.1 511.7,470.6 
		512.6,470.6 489,411.7 	"/>
	<polygon class="st1" points="489.5,396.8 489.8,397.5 489.8,397.5 491.4,396.7 491.4,396.7 491.2,395.9 	"/>
	<polygon class="st1" points="492.3,399.4 492.2,399.4 490.6,400.1 490.9,400.9 490.9,400.9 492.6,400.2 492.6,400.2 492.3,399.4 	
		"/>
	<polygon class="st1" points="491.8,403.4 492.1,404.2 492.1,404.2 493.7,403.6 493.7,403.5 493.5,402.8 	"/>
	<polygon class="st1" points="492.9,406.7 493.2,407.4 493.2,407.4 494.8,406.9 494.8,406.9 494.6,406.2 	"/>
	<polygon class="st1" points="495.9,410.3 495.7,409.5 495.7,409.5 494.3,409.8 494.1,409.9 494.3,410.6 494.3,410.6 515.2,470.6 
		516,470.6 495.9,410.3 	"/>
	<polygon class="st1" points="496.6,393.2 496.8,394.1 496.8,394.1 498.4,393.3 498.4,393.3 498.2,392.4 	"/>
	<polygon class="st1" points="497.7,397.1 497.9,398 497.9,398 499.6,397.3 499.6,397.3 499.3,396.4 	"/>
	<polygon class="st1" points="500.4,400.4 500.4,400.4 498.8,401 499,401.8 499,401.8 500.6,401.3 500.6,401.2 500.4,400.4 	"/>
	<polygon class="st1" points="501.4,404.2 501.1,404.3 499.8,404.7 500,405.5 500.5,405.4 501.6,405.1 501.6,405 501.4,404.2 	"/>
	<polygon class="st1" points="508.8,431.8 508.2,430 508.3,430 506.7,424 506.6,424 506,422.3 506.2,422.2 504.7,416.3 504.3,416.4 
		503.7,414.5 504.2,414.5 502.6,408.8 502.6,408.8 502.4,408 502.4,408 502,408.1 500.9,408.3 501.1,409.1 501.1,409.1 518.6,470.6 
		519.3,470.6 508.8,431.8 	"/>
	<polygon class="st1" points="503.7,389.7 503.9,390.7 504.3,390.5 505.5,389.9 505.5,389.9 505.3,388.8 	"/>
	<polygon class="st1" points="504.6,394.2 504.9,395.2 505.3,395 506.5,394.5 506.5,394.5 506.3,393.5 	"/>
	<polygon class="st1" points="505.6,398.5 505.8,399.4 505.8,399.5 507.4,398.9 507.4,398.9 507.2,397.9 	"/>
	<polygon class="st1" points="506.6,402.7 506.8,403.7 506.8,403.7 508.3,403.2 508.3,403.2 508.1,402.3 	"/>
	<polygon class="st1" points="513.7,429.1 512.5,423.4 511.2,423.5 512.5,429.3 	"/>
	<polygon class="st1" points="516.9,444.3 515.7,438.5 514.6,438.7 515.9,444.6 	"/>
	<polygon class="st1" points="515.3,436.6 514.1,430.8 512.9,431.1 514.2,436.9 	"/>
	<polygon class="st1" points="520.1,459.8 518.9,453.7 518,454.1 519.4,460.1 	"/>
	<polygon class="st1" points="521.5,469.8 521.7,470.6 522.4,470.6 522.2,469.4 	"/>
	<polygon class="st1" points="521.8,467.6 520.5,461.6 519.8,461.9 521.1,467.9 	"/>
	<polygon class="st1" points="509.5,416.1 510.8,421.8 510.8,421.8 512.2,421.7 511,416 510.7,416 	"/>
	<polygon class="st1" points="521.4,469.2 521.4,469.1 521.1,467.9 521.5,469.8 	"/>
	<polygon class="st1" points="518.5,452 517.3,446 516.3,446.4 517.6,452.3 	"/>
	<polygon class="st1" points="507.7,407.7 507.7,407.7 509.1,414.3 509.8,414.3 510.6,414.3 509.2,407.4 509.2,407.4 509,406.4 
		509,406.4 508.8,406.5 507.5,406.8 	"/>
	<polygon class="st1" points="510.6,414.3 509.8,414.3 510.7,416 511,416 516.8,415.7 516,414 	"/>
	<polygon class="st1" points="518.6,415.5 522.7,415.3 522.7,413.7 517.8,413.9 	"/>
	<polygon class="st1" points="504.3,416.4 504.7,416.3 504.2,414.5 503.7,414.5 	"/>
	<polygon class="st1" points="519.5,420.9 513.8,421.5 512.2,421.7 510.8,421.8 511.2,423.5 512.5,423.4 513.1,423.3 514.8,423.1 
		520.3,422.5 521.9,422.3 522.7,422.2 522.7,420.6 521.2,420.7 	"/>
	<polygon class="st1" points="506.6,424 506.7,424 506.2,422.2 506,422.3 	"/>
	<polygon class="st1" points="512.5,429.3 512.9,431.1 514.1,430.8 522.7,429.3 522.7,427.7 513.7,429.1 	"/>
	<polygon class="st1" points="508.8,431.8 508.8,431.8 508.3,430 508.2,430 	"/>
	<polygon class="st1" points="514.2,436.9 514.6,438.7 515.7,438.5 522.7,436.8 522.7,435 515.3,436.6 	"/>
	<polygon class="st1" points="515.9,444.6 516.3,446.4 517.3,446 522.7,444.4 522.7,442.6 516.9,444.3 	"/>
	<polygon class="st1" points="517.6,452.3 518,454.1 518.9,453.7 522.7,452.3 522.7,450.5 518.5,452 	"/>
	<polygon class="st1" points="520.1,459.8 519.4,460.1 519.8,461.9 520.5,461.6 522.7,460.6 522.7,459.8 522.3,458.9 	"/>
	<polygon class="st1" points="521.1,467.9 521.4,469.1 521.4,469.2 521.6,469.7 521.5,469.8 522.2,469.4 522.7,469.1 522.7,467.1 
		521.8,467.6 	"/>
	<polygon class="st1" points="521.8,404.7 521.6,404.1 519.8,404.5 520.1,405.1 520.2,405.2 522.7,411.1 522.7,406.8 521.9,404.9 	
		"/>
	<polygon class="st1" points="516,414 516.8,415.7 518.6,415.5 517.8,413.9 514.2,406.5 514.1,406.3 513.9,405.9 512.1,406.2 
		512.3,406.7 512.4,406.9 	"/>
	<polygon class="st1" points="509.8,414.3 509.1,414.3 509.5,416.1 510.7,416 	"/>
	<polygon class="st1" points="522.7,459.8 522.7,458.7 522.3,458.9 	"/>
	<polygon class="st1" points="521.6,469.7 521.4,469.2 521.5,469.8 	"/>
</g>
<sodipodi:namedview  bordercolor="#666666" borderopacity="1.0" id="base" inkscape:current-layer="layer1" inkscape:cx="298.31503" inkscape:cy="850.86971" inkscape:document-units="mm" inkscape:guide-bbox="true" inkscape:object-paths="false" inkscape:pageopacity="0.0" inkscape:pageshadow="2" inkscape:snap-bbox="true" inkscape:snap-bbox-midpoints="true" inkscape:snap-intersection-paths="true" inkscape:snap-smooth-nodes="true" inkscape:window-height="756" inkscape:window-maximized="1" inkscape:window-width="1276" inkscape:window-x="4" inkscape:window-y="22" inkscape:zoom="1.4133192" pagecolor="#ffffff" showgrid="true" showguides="true">
	<inkscape:grid  empspacing="4" id="grid4508" spacingx="1" spacingy="1" type="xygrid" units="mm"></inkscape:grid>
	<sodipodi:guide  id="guide4543" inkscape:locked="false" orientation="0,1" position="52,292"></sodipodi:guide>
	<sodipodi:guide  id="guide4545" inkscape:locked="false" orientation="0,1" position="28,244"></sodipodi:guide>
	<sodipodi:guide  id="guide4547" inkscape:locked="false" orientation="0,1" position="230,209"></sodipodi:guide>
	<sodipodi:guide  id="guide4549" inkscape:locked="false" orientation="1,0" position="222.06164,285.75001"></sodipodi:guide>
	<sodipodi:guide  id="guide4553" inkscape:locked="false" orientation="1,0" position="218.06164,264.75538"></sodipodi:guide>
	<sodipodi:guide  id="guide4594" inkscape:locked="false" orientation="1,0" position="178,217"></sodipodi:guide>
	<sodipodi:guide  id="guide4626" inkscape:locked="false" orientation="0,1" position="126,225"></sodipodi:guide>
	<sodipodi:guide  id="guide4630" inkscape:locked="false" orientation="1,0" position="202.06164,164.96909"></sodipodi:guide>
	<sodipodi:guide  id="guide4724" inkscape:locked="false" orientation="1,0" position="8,240"></sodipodi:guide>
	<sodipodi:guide  id="guide4771" inkscape:locked="false" orientation="0,1" position="32.8119,181.80122"></sodipodi:guide>
	<sodipodi:guide  id="guide4775" inkscape:locked="false" orientation="0,1" position="143,197.00001"></sodipodi:guide>
	<sodipodi:guide  id="guide4796" inkscape:locked="false" orientation="1,0" position="265,199"></sodipodi:guide>
	<sodipodi:guide  id="guide4808" inkscape:locked="false" orientation="1,0" position="295.99999,201.00002"></sodipodi:guide>
	<sodipodi:guide  id="guide4554" inkscape:locked="false" orientation="1,0" position="47.999999,240.00001"></sodipodi:guide>
</sodipodi:namedview>
<g id="layer1" inkscape:groupmode="layer" inkscape:label="Layer 1">
	<g id="g887" transform="rotate(-90,113.5,117.5)">
		<path id="rect4504" inkscape:connector-curvature="0" sodipodi:nodetypes="ccccccccccccccccc" class="st2" d="M-429.6,53.2V41.9
			h150.2v11.3h28.3h40.4h98.5V41.8h22.7v238.1v11.3h-22.6v-11.3h-167.2v11.3h-150.2L-429.6,53.2z"/>
		<path id="rect4510" inkscape:connector-curvature="0" sodipodi:nodetypes="ccccccccccccccc" class="st2" d="M-123.4,109.9v113.4
			h11.3V109.9H-123.4z M-112.1,223.3v45.4h11.3v-45.4L-112.1,223.3L-112.1,223.3z M-123.4,223.3h-11.3v45.4h11.3V223.3z"/>
		
			<rect id="rect4516" x="-129.1" y="81.6" transform="matrix(-2.535182e-06 -1 1 -2.535182e-06 -193.6562 -19.226)" class="st2" width="45.4" height="11.3"/>
		
			<rect id="rect4520" x="-151.8" y="81.5" transform="matrix(-2.535182e-06 -1 1 -2.535182e-06 -216.2474 -41.926)" class="st2" width="45.4" height="11.3"/>
	</g>
	<g id="g4749" transform="rotate(90,164.65615,-64.656146)">
		<path id="rect4506" inkscape:connector-curvature="0" sodipodi:nodetypes="ccccccccccccccccccccc" class="st2" d="M337.1-187.3
			v11.3h-59.5v113.4V50.8h59.5v11.3h42.5V50.8h11.3V39.5V-5.9h11.3v-56.7v-56.7h-11.3v-45.4V-176h-11.3v-11.3L337.1-187.3
			L337.1-187.3z"/>
		
			<rect id="rect4578" x="328.6" y="-79.5" transform="matrix(2.535182e-06 1 -1 2.535182e-06 283.1345 -408.0775)" class="st2" width="34" height="34"/>
	</g>
	<g id="g4759" transform="rotate(-90,202.24272,206.24278)">
		<path id="path4564" inkscape:connector-curvature="0" sodipodi:nodetypes="cccccccccccccccccccccc" class="st2" d="M110.8,41.8
			v11.3H99.5v113.4v113.4h11.3v11.3h42.5v-11.3h59.5v-11.3h11.3v-45.4h-11.3V109.9h11.3V64.5h-11.3V53.2h-59.5V41.8H110.8z"/>
		<g id="g4660" transform="translate(133.42376,-162.88447)">
			
				<rect id="rect4596" x="31.9" y="300.3" transform="matrix(-2.535182e-06 -1 1 -2.535182e-06 -276.1134 344.294)" class="st2" width="4.3" height="19.8"/>
			
				<rect id="rect4598" x="32" y="338.7" transform="matrix(-2.535182e-06 -1 1 -2.535182e-06 -314.4139 382.7232)" class="st2" width="4.3" height="19.8"/>
		</g>
	</g>
	<g id="g881" transform="rotate(-180,159.06164,83)">
		<path id="path4562" inkscape:connector-curvature="0" sodipodi:nodetypes="ccccccccccccccccccccccccccccc" class="st2" d="
			M8-134.6h11.3v45.4H8v11.3h11.3V89.3H8.2v19.8v8.5H-3.4L-204.8-55.2v-34v-102v-102v-34l201.4-173H8.1v8.5v19.8h11.2v167.2H8v11.3
			h11.3v45.4H8v56.7V-134.6z"/>
		<path id="path4570" inkscape:connector-curvature="0" class="st2" d="M-128.6-191.2c0,13.3-10.8,24.1-24.1,24.1l0,0
			c-13.3,0-24.1-10.8-24.1-24.1s10.8-24.1,24.1-24.1C-139.4-215.3-128.6-204.6-128.6-191.2L-128.6-191.2z"/>
		<path id="path4584" inkscape:connector-curvature="0" class="st2" d="M-27.1-191.2c0,5.7-4.6,10.3-10.3,10.3s-10.3-4.6-10.3-10.3
			s4.6-10.3,10.3-10.3S-27.1-196.9-27.1-191.2z"/>
		<path id="path4765" inkscape:connector-curvature="0" class="st3" d="M-204.6-77.9H8"/>
		<path id="rect4790" inkscape:connector-curvature="0" class="st2" d="M-46-77.9h42.5v11.3H-46V-77.9z"/>
		<path id="rect4792" inkscape:connector-curvature="0" class="st2" d="M-94.2-66.5h42.5v11.3h-42.5V-66.5z"/>
		<path id="path4821" inkscape:connector-curvature="0" class="st3" d="M-204.8-304.6H7.8"/>
		<path id="rect4823" inkscape:connector-curvature="0" class="st2" d="M-46-304.6h42.5v-11.3H-46V-304.6z"/>
		<path id="rect4825" inkscape:connector-curvature="0" class="st2" d="M-94.2-316h42.5v-11.3h-42.5V-316z"/>
	</g>
</g>
<path d="M233.8,449.6c-6,0-10.8,4.8-10.8,10.6c0,2.5,0.9,4.9,2.5,6.7l-32.1,47.5v-51.7c4.3-1.4,7.3-5.4,7.3-10
	c0-5.9-4.8-10.6-10.8-10.6s-10.8,4.8-10.8,10.6c0,3.5,1.7,6.7,4.5,8.6L169,500l-6.4,16.7l-20.9-55.3c2.8-2,4.5-5.1,4.5-8.6
	c0-5.9-4.8-10.6-10.8-10.6s-10.8,4.8-10.8,10.6c0,4.7,3,8.6,7.3,10v51.7L99.8,467c1.6-1.9,2.5-4.2,2.5-6.7c0-5.9-4.8-10.6-10.8-10.6
	s-10.8,4.8-10.8,10.6c0,5.7,4.7,10.4,10.5,10.6l25.9,94l0.6,2.3h2.4h42.6h42.6h2.4l0.6-2.3l25.9-94c5.8-0.2,10.5-4.9,10.5-10.6
	C244.6,454.3,239.8,449.6,233.8,449.6z M93.4,467.4c-0.6,0.2-1.3,0.3-2,0.3c-4.2,0-7.7-3.4-7.7-7.5c0-4.2,3.4-7.5,7.7-7.5
	c4.2,0,7.7,3.4,7.7,7.5c0,2.6-1.4,4.9-3.4,6.3l39.4,58.2v-64.5c-4.1-0.2-7.3-3.5-7.3-7.5c0-4.2,3.4-7.5,7.7-7.5
	c4.2,0,7.7,3.4,7.7,7.5c0,3.3-2.2,6.1-5.3,7.1l23.2,61.2l-16.6,43H120L93.4,467.4z M233.8,467.7c-0.7,0-1.4-0.1-2-0.3l-26.6,96.5
	h-42.6h-15l14.9-38.6l0.1,0.2l9.3-24.6l2.6-6.6l0,0l13.1-34.6c-3.1-1-5.3-3.8-5.3-7.1c0-4.2,3.4-7.5,7.7-7.5s7.7,3.4,7.7,7.5
	c0,4-3.3,7.3-7.3,7.5v64.5l39.4-58.2c-2.1-1.3-3.4-3.6-3.4-6.3c0-4.2,3.4-7.5,7.7-7.5s7.7,3.4,7.7,7.5
	C241.5,464.3,238.1,467.7,233.8,467.7z"/>
<path d="M119.4,571.3h-2.9v2.8v6v2.8h2.8h85.8h2.8v-2.8v-6v-2.8h-2.8H119.4L119.4,571.3z M205.2,580h-85.8v-6h85.8L205.2,580
	L205.2,580z"/>
<text transform="matrix(-2.949636e-16 1.5125 -1 -1.730360e-16 346.1878 512.5587)" class="st4 st5 st6">S</text>
<text transform="matrix(-2.949636e-16 1.5125 -1 -1.730360e-16 348.8382 133.3282)" class="st4 st5 st6">S</text>
</svg>
